<?xml version="1.0" encoding="UTF-8" standalone="no"?>
<svg
   xmlns:dc="http://purl.org/dc/elements/1.1/"
   xmlns:cc="http://creativecommons.org/ns#"
   xmlns:rdf="http://www.w3.org/1999/02/22-rdf-syntax-ns#"
   xmlns:svg="http://www.w3.org/2000/svg"
   xmlns="http://www.w3.org/2000/svg"
   viewBox="0 0 419.26666 104.65333"
   height="104.65333"
   width="419.26666"
   xml:space="preserve"
   id="svg2"
   version="1.1"><metadata
     id="metadata8"><rdf:RDF><cc:Work
         rdf:about=""><dc:format>image/svg+xml</dc:format><dc:type
           rdf:resource="http://purl.org/dc/dcmitype/StillImage" /></cc:Work></rdf:RDF></metadata><defs
     id="defs6" /><g
     transform="matrix(1.3333333,0,0,-1.3333333,0,104.65333)"
     id="g10"><g
       transform="scale(0.1)"
       id="g12"><path
         id="path14"
         style="fill:#3e3f43;fill-opacity:1;fill-rule:nonzero;stroke:none"
         d="m 1049.6,33.8555 c 0,-7.9727 -1.98,-11.9532 -11.98,-13.9532 C 961.934,11.9531 851.355,0 796.602,0 685.004,0 553.551,35.8477 553.551,204.195 c 0,161.352 154.387,174.313 237.054,174.313 40.829,0 122.52,-7.973 152.372,-11.977 0,114.571 -66.719,134.485 -166.329,134.485 -52.785,0 -101.593,-3.989 -138.464,-6.961 h -2.961 c -5.996,0 -8.985,2.972 -9.973,7.949 l -9.953,60.769 v 0.989 c 0,4.984 3.98,7.972 9.953,7.972 50.797,6.961 122.543,11.961 167.348,11.961 154.367,0 257.002,-47.812 257.002,-202.211 z M 945.02,286.852 c 0,5.992 -2.043,9.972 -10.997,9.972 H 799.59 c -68.742,0 -138.473,-8.969 -138.473,-92.629 0,-98.629 71.723,-111.5778 133.473,-111.5778 h 139.433 c 8.954,0 10.997,1.9922 10.997,9.9488 v 184.286" /><path
         id="path16"
         style="fill:#3e3f43;fill-opacity:1;fill-rule:nonzero;stroke:none"
         d="m 1213.86,9.96094 h -86.65 c -5.98,0 -8.99,1.99216 -8.99,9.94136 V 764.965 c 0,6.969 3.01,8.961 8.99,9.965 l 85.65,9.953 c 7.96,0 9.95,-2.996 9.95,-9.953 V 19.9023 c 0,-6.9531 -1.99,-9.94136 -8.95,-9.94136" /><path
         id="path18"
         style="fill:#3e3f43;fill-opacity:1;fill-rule:nonzero;stroke:none"
         d="m 1413.03,682.289 c 0,-6.969 -1.99,-9.965 -8.96,-9.965 h -86.67 c -4.98,0 -8.96,2.996 -8.96,10.973 v 81.683 c 0,6.961 2.99,9.942 8.96,9.942 h 86.67 c 6.97,0 8.96,-2.981 8.96,-9.942 z M 1404.07,9.96094 h -86.67 c -5.97,0 -8.96,2.98826 -8.96,9.94136 V 568.734 c 0,5.985 2.99,9.961 9.96,9.961 h 84.68 c 7.96,0 9.95,-2.972 9.95,-8.953 V 19.9023 c 0,-6.9531 -1.99,-9.94136 -8.96,-9.94136" /><path
         id="path20"
         style="fill:#7ec829;fill-opacity:1;fill-rule:nonzero;stroke:none"
         d="m 2547.97,250.004 h -416.35 c -5.98,0 -9,-0.996 -9,-9.961 3.98,-125.496 88.66,-153.3711 211.2,-153.3711 45.78,0 96.63,3.957 150.41,7.9609 3.93,0 8.95,-1.0117 8.95,-6.9765 v -1.9922 l -8.95,-60.7618 c -1.99,-6.9921 -4.97,-6.9921 -11.98,-8.996 -48.77,-6.95317 -108.58,-12.92192 -172.31,-12.92192 -170.31,0 -284.85,70.72652 -284.85,292.84362 0,214.149 123.49,286.852 272.86,286.852 182.3,0 268.97,-101.586 268.97,-322.723 0,-6.953 -2.99,-9.953 -8.95,-9.953 m -265.94,252.992 c -97.63,0 -160.41,-53.789 -160.41,-164.34 0,-7.965 1.99,-9.976 9.01,-9.976 h 308.77 c 6.97,0 10.95,1.008 10.95,8.98 -2.99,111.547 -68.76,165.336 -168.32,165.336" /><path
         id="path22"
         style="fill:#7ec829;fill-opacity:1;fill-rule:nonzero;stroke:none"
         d="m 2856.66,0.0117188 c -146.44,0 -284.9,93.6015812 -284.9,288.8282812 0,203.219 123.54,296.848 285.89,296.848 163.39,0 286.88,-91.661 286.88,-296.848 0,-193.215 -133.49,-288.8282812 -287.87,-288.8282812 m 0,506.9762812 c -98.61,0 -179.28,-53.797 -179.28,-218.148 0,-143.43 73.69,-204.172 181.26,-204.172 107.57,0 182.31,62.73 182.31,204.172 0,165.359 -82.7,218.148 -184.29,218.148" /><path
         id="path24"
         style="fill:#3e3f43;fill-opacity:1;fill-rule:nonzero;stroke:none"
         d="M 508.496,158.516 V 344.863 H 271.504 V 235.484 h 82.191 c 27.051,13.309 154.801,107.918 154.801,107.918 L 399.117,201.207 v -95.48 c 0,-6.9926 0.903,-10.9692 -5.07,-10.9692 -31.891,-4.0039 -77.758,-6.9883 -105.625,-6.9883 -111.551,0 -180.309,69.7425 -180.309,217.1405 0,144.438 73.192,193.27 185.739,193.27 38.859,0 74.046,-3 101.941,-7.985 5.988,-0.996 3.324,-4.976 3.324,-10.972 v -61.442 h 109.379 v 128.192 c 0,6.961 -1.992,9.949 -7.965,11.925 C 431.82,569.867 358.086,580.836 294.324,580.836 141.949,580.836 0,516.07 0,302.91 0,89.043 127.836,7.57422 271.641,5.19141 L 271.348,5.01953 C 273.289,4.98438 398.66,-4.84375 462.645,21 c 0,0 39.652,9.375 44.445,86.766 0.906,16.281 1.406,33.117 1.406,50.75" /><path
         id="path26"
         style="fill:#7ec829;fill-opacity:1;fill-rule:nonzero;stroke:none"
         d="m 1966.83,158.516 v 186.347 h -237 V 235.484 H 1812 c 27.05,13.309 154.83,107.918 154.83,107.918 L 1857.42,201.207 v -95.48 c 0,-6.9926 0.91,-10.9692 -5.07,-10.9692 -31.88,-4.0039 -77.73,-6.9883 -105.62,-6.9883 -111.55,0 -180.3,69.7425 -180.3,217.1405 0,144.438 73.18,193.27 185.73,193.27 38.86,0 74.05,-3 101.96,-7.985 5.97,-0.996 3.3,-4.976 3.3,-10.972 v -61.442 h 109.41 v 128.192 c 0,6.961 -2,9.949 -7.96,11.925 -68.72,11.969 -142.47,22.938 -206.21,22.938 -152.41,0 -294.35,-64.766 -294.35,-277.926 0,-213.867 127.85,-295.33578 271.64,-297.71859 l -0.29,-0.17188 C 1731.6,4.98438 1856.97,-4.84375 1921,21 c 0,0 39.63,9.375 44.42,86.766 0.91,16.281 1.41,33.117 1.41,50.75" /></g></g></svg>